<svg width="2560" height="1440" viewBox="0 0 2560 1440" fill="none" xmlns="http://www.w3.org/2000/svg">
<g clip-path="url(#clip0_33_2)">
<rect width="2560" height="694" fill="white"/>
<rect y="774" width="2560" height="666" fill="white"/>
<rect width="850" height="1440" fill="white"/>
<rect x="906" width="1654" height="1440" fill="white"/>
<path d="M988.387 783.258H1020.46V717.837C1020.46 696.877 1011.57 691.797 992.676 691.797H989.817C973.144 691.797 964.888 697.512 962.505 709.897V693.384H930.589V783.258H962.505V728.635C962.505 720.377 965.839 715.456 975.209 715.456H976.003C986.165 715.456 988.388 720.377 988.388 729.112L988.387 783.258ZM925.507 752.931V723.712C925.507 696.718 918.52 691.796 879.143 691.796C840.08 691.796 833.093 696.718 833.093 723.712V752.931C833.093 779.765 840.08 784.847 879.143 784.847C918.521 784.847 925.507 779.767 925.507 752.931ZM895.809 725.073C895.809 731.188 892.532 736.494 887.669 739.462L893 758.423C894.517 763.819 891.2 768.196 885.595 768.196H872.221C866.613 768.196 863.299 763.819 864.816 758.423L870.147 739.462C865.284 736.494 862.007 731.188 862.007 725.073C862.007 715.74 869.573 708.172 878.908 708.172C888.241 708.172 895.809 715.738 895.809 725.073ZM828.807 758.806V755.947C828.807 737.051 823.249 731.334 801.495 728.16L779.9 724.824C772.436 723.712 770.689 722.125 770.689 716.25C770.689 709.58 774.183 707.357 784.028 707.357C793.237 707.357 796.255 710.216 796.572 717.202L796.731 722.282H828.807L828.172 717.52C825.789 694.813 821.185 691.796 782.757 691.796C746.236 691.796 738.773 696.084 738.773 717.361V719.743C738.773 738.797 744.172 744.356 765.767 747.689L787.997 751.024C795.144 752.136 797.049 754.041 797.049 760.393C797.049 766.745 793.556 769.287 784.187 769.287C774.819 769.287 771.325 766.745 770.848 759.598L770.531 754.518H738.456L738.773 759.281C740.36 781.829 746.236 784.847 785.299 784.847C821.661 784.847 828.807 780.558 828.807 758.806ZM701.299 783.26H733.215V693.384H701.299V783.26ZM701.299 688.302H733.215V666.548H701.299V688.302ZM665.891 783.258H696.219L695.425 767.221L695.265 716.884C695.265 695.765 684.628 691.796 650.964 691.796C618.095 691.796 607.297 695.131 605.709 717.996L605.232 722.919H638.896V719.425C639.213 710.374 642.548 707.992 652.076 707.992C661.761 707.992 664.779 710.058 664.779 717.678C664.779 723.712 662.397 725.3 653.188 726.729L632.544 730.064C610.632 733.557 605.709 738.797 605.709 754.994V758.648C605.709 777.065 615.236 784.848 637.944 784.848C654.14 784.848 662.556 780.717 665.571 771.191L665.891 783.258ZM664.62 755.947C664.62 763.568 659.38 766.268 649.853 766.268C640.484 766.268 637.625 764.045 637.625 757.535C637.625 751.977 639.212 750.548 647.471 748.484L655.728 746.737C659.697 745.784 662.873 744.672 664.62 742.609V755.947ZM569.031 783.258H600.153V666.548H551.723L533.621 741.815L515.519 666.548H466.292V783.258H498.211V706.245L518.377 783.258H548.388L569.031 706.405V783.258Z" fill="#5FB441"/>
<path d="M2035.59 716.249C2035.59 709.58 2039.08 707.357 2048.93 707.357C2058.14 707.357 2061.15 710.216 2061.47 717.203L2061.63 722.284H2093.71L2093.07 717.52C2090.69 694.813 2086.08 691.796 2047.66 691.796C2011.14 691.796 2003.67 696.084 2003.67 717.361V719.743C2003.67 738.797 2009.07 744.356 2030.67 747.689L2052.9 751.024C2060.04 752.136 2061.95 754.041 2061.95 760.393C2061.95 766.745 2058.45 769.287 2049.09 769.287C2039.72 769.287 2036.22 766.745 2035.75 759.599L2035.43 754.519H2003.35L2003.67 759.281C2005.26 781.829 2011.14 784.847 2050.2 784.847C2086.56 784.847 2093.71 780.56 2093.71 758.807V755.947C2093.71 737.051 2088.15 731.335 2066.39 728.16L2044.8 724.824C2037.34 723.712 2035.59 722.124 2035.59 716.249ZM1966.2 783.259H1998.11V693.384H1966.2V783.259ZM1966.2 688.303H1998.11V666.548H1966.2V688.303ZM1930.79 783.259H1961.12L1960.33 767.221L1960.17 716.885C1960.17 695.765 1949.53 691.796 1915.86 691.796C1882.99 691.796 1872.2 695.131 1870.61 717.996L1870.13 722.919H1903.8V719.425C1904.11 710.375 1907.45 707.992 1916.97 707.992C1926.66 707.992 1929.68 710.059 1929.68 717.679C1929.68 723.712 1927.3 725.3 1918.09 726.729L1897.44 730.064C1875.53 733.557 1870.61 738.797 1870.61 754.995V758.648C1870.61 777.067 1880.14 784.848 1902.84 784.848C1919.04 784.848 1927.46 780.719 1930.47 771.191L1930.79 783.259ZM1929.52 755.947C1929.52 763.569 1924.28 766.268 1914.75 766.268C1905.38 766.268 1902.53 764.045 1902.53 757.535C1902.53 751.977 1904.11 750.548 1912.37 748.484L1920.63 746.737C1924.6 745.784 1927.77 744.673 1929.52 742.609L1929.52 755.947ZM1845.84 783.259L1872.04 693.384H1842.5L1824.4 756.584L1806.3 693.384H1774.7L1800.74 783.259H1845.84ZM1772.8 724.824L1772.95 692.113H1771.05C1759.3 692.113 1751.2 698.783 1748.18 712.28V693.384H1715.79V783.259H1748.18V740.863C1748.18 729.112 1752.15 724.824 1763.11 724.824H1772.8ZM1651.01 753.565V743.72H1710.39V729.429C1710.39 696.56 1704.36 691.796 1664.82 691.796C1625.76 691.796 1618.93 696.719 1618.93 724.507V752.136C1618.93 779.765 1625.76 784.847 1664.82 784.847C1701.5 784.847 1708.01 780.4 1710.07 757.852L1710.71 750.707H1678.16L1677.52 755.312C1676.57 765.315 1674.03 768.173 1664.5 768.173C1654.02 768.173 1651.01 764.68 1651.01 753.565ZM1651.01 729.112V722.76C1651.01 711.485 1654.02 707.992 1664.34 707.992C1674.35 707.992 1677.52 711.327 1677.68 721.807L1677.84 729.113L1651.01 729.112ZM1614.33 745.625V715.139H1565.74V738.321H1580.98L1580.51 750.865C1579.87 761.823 1574.95 764.68 1561.29 764.68C1546.05 764.68 1542.4 760.869 1542.4 745.308V704.499C1542.4 689.096 1546.05 685.127 1560.5 685.127C1572.41 685.127 1576.53 688.461 1577.49 698.783L1577.96 705.769H1614.01L1613.37 699.417C1610.67 669.089 1604.32 664.96 1560.18 664.96C1513.34 664.96 1506.99 669.883 1506.99 704.816V744.991C1506.99 779.924 1513.34 784.847 1560.18 784.847C1606.71 784.847 1614.33 779.767 1614.33 745.625ZM1448.08 748.643H1500.64V721.331H1448.08V748.643ZM1416.16 783.259H1442.04V764.045H1438.39C1430.93 764.045 1428.39 761.028 1428.39 752.295V716.091H1442.04V693.384H1428.39V666.548L1396.31 679.569V693.384H1385.83V716.091H1396.31V762.299C1396.31 777.067 1402.19 783.259 1416.16 783.259ZM1349.47 783.259H1381.55V717.837C1381.55 696.877 1372.65 691.797 1353.76 691.797H1350.9C1334.23 691.797 1325.97 697.512 1323.59 709.899V693.384H1291.67V783.259H1323.59V728.635C1323.59 720.377 1326.92 715.456 1336.29 715.456H1337.08C1347.25 715.456 1349.47 720.377 1349.47 729.112L1349.47 783.259ZM1253.72 783.259H1285.64V693.384H1253.72V783.259ZM1253.72 688.303H1285.64V666.548H1253.72V688.303ZM1218.31 783.259H1248.64L1247.85 767.221L1247.69 716.885C1247.69 695.765 1237.05 691.796 1203.39 691.796C1170.52 691.796 1159.72 695.131 1158.13 717.996L1157.65 722.919H1191.32V719.425C1191.63 710.375 1194.97 707.992 1204.5 707.992C1214.18 707.992 1217.2 710.059 1217.2 717.679C1217.2 723.712 1214.82 725.3 1205.61 726.729L1184.97 730.064C1163.05 733.557 1158.13 738.797 1158.13 754.995V758.648C1158.13 777.067 1167.66 784.848 1190.36 784.848C1206.56 784.848 1214.98 780.719 1217.99 771.191L1218.31 783.259ZM1217.04 755.947C1217.04 763.569 1211.8 766.268 1202.27 766.268C1192.91 766.268 1190.05 764.045 1190.05 757.535C1190.05 751.977 1191.63 750.548 1199.89 748.484L1208.15 746.737C1212.12 745.784 1215.3 744.673 1217.04 742.609L1217.04 755.947ZM1118.27 704.023H1153.69L1153.05 696.084C1150.99 670.517 1141.93 664.96 1100.49 664.96C1060.32 664.96 1049.04 671.312 1049.04 695.131V704.024C1049.04 726.888 1054.76 731.652 1088.58 738.004L1102.55 740.703C1116.21 743.244 1118.59 745.149 1118.59 752.612C1118.59 761.823 1113.67 765.315 1102.24 765.315C1089.22 765.315 1084.77 761.664 1084.45 751.819L1084.29 745.943H1048.88L1049.36 754.2C1050.79 779.289 1060 784.847 1101.13 784.847C1144.16 784.847 1153.53 779.448 1153.53 753.567V744.991C1153.53 722.444 1148.13 717.679 1114.31 711.327L1100.97 708.945C1087.31 706.245 1084.45 704.499 1084.45 696.879C1084.45 687.825 1089.22 684.652 1101.44 684.652C1113.35 684.652 1117.16 687.985 1117.96 697.829L1118.27 704.023Z" fill="#DC5727"/>
</g>
<defs>
<clipPath id="clip0_33_2">
<rect width="2560" height="1440" fill="white"/>
</clipPath>
</defs>
</svg>
